<svg width="0" height="0" class="hidden">
  <symbol xmlns="http://www.w3.org/2000/svg" version="1.2" viewBox="0 0 375 375" id="javascript">
    <path fill="#ffd600" d="M0 0h375v375H0z"></path>
    <path d="M245.188 280.7c7.207 11.706 15.042 22.925 31.636 22.925 13.938 0 21.25-6.926 21.25-16.512 0-11.468-7.562-15.539-22.898-22.218l-8.406-3.582c-24.258-10.293-40.395-23.188-40.395-50.426 0-25.106 19.219-44.211 49.25-44.211 21.387 0 36.75 7.406 47.832 26.804l-26.187 16.74c-5.758-10.293-11.989-14.344-21.645-14.344-9.855 0-16.094 6.219-16.094 14.344 0 10.043 6.25 14.105 20.676 20.324l8.406 3.582c28.594 12.176 44.719 24.613 44.719 52.574 0 30.125-23.789 46.633-55.727 46.633-31.242 0-48.98-15.676-58.855-35.082zm-120.688.85c5.27 9.438 13.281 16.7 24.8 16.7 11.024 0 17.368-4.355 17.368-21.281V166.668h34.719v115.633c0 35.074-20.344 51.031-50.055 51.031-26.844 0-46.219-18.187-54.113-35.082zm0 0" fill="#000001"></path>
  </symbol>
  <symbol xmlns="http://www.w3.org/2000/svg" version="1.2" viewBox="0 0 375 375" id="mongodb">
    <defs>
      <clipPath id="a">
        <path d="M18.516 0h338.25v375H18.516zm0 0"></path>
      </clipPath>
    </defs>
    <g clip-path="url(#a)">
      <path d="M356.813 124.688C356.813 316.875 187.78 375 187.78 375S18.75 316.875 18.75 124.687c0-23.437 1.879-43.124 3.758-59.062 2.816-23.438 18.781-42.188 41.316-47.813C92.938 9.376 138.95 0 187.781 0c48.832 0 94.844 9.375 124.895 17.813 22.539 5.625 38.504 25.312 41.32 47.812.938 15.938 2.817 36.563 2.817 59.063zm0 0" fill="#5d4037"></path>
      <path d="M187.781 28.125c46.016 0 89.211 9.375 117.383 16.875 11.27 2.813 18.781 12.188 20.66 24.375 1.88 17.813 2.817 36.563 2.817 55.313 0 146.25-107.993 205.312-140.86 219.375-32.867-15-140.86-74.063-140.86-219.375 0-18.75.938-37.5 2.817-55.313.942-12.188 9.39-21.563 20.66-24.375 28.172-7.5 71.368-16.875 117.383-16.875m0-28.125C138.95 0 92.937 9.375 62.887 17.813c-21.598 5.625-38.504 25.312-40.38 47.812-1.878 15.938-3.757 36.563-3.757 59.063C18.75 316.875 187.781 375 187.781 375s169.031-58.125 169.031-250.313c0-23.437-1.878-43.124-3.757-59.062-2.817-23.438-18.782-42.188-41.317-47.813C282.625 9.376 236.613 0 187.781 0zm0 0" fill="#4caf50"></path>
    </g>
    <path d="M178.39 225h18.782v75H178.39zm0 0" fill="#dcedc8"></path>
    <path d="M187.781 56.25s-56.344 46.875-56.344 121.875c0 48.75 30.989 79.688 46.954 93.75l9.39-28.125 9.39 28.125c15.966-14.063 46.954-45 46.954-93.75 0-75-56.344-121.875-56.344-121.875zm0 0" fill="#4caf50"></path>
    <path d="M187.781 56.25s-56.344 46.875-56.344 121.875c0 48.75 30.989 79.688 46.954 93.75l9.39-28.125zm0 0" fill="#81c784"></path>
  </symbol>
  <symbol xmlns="http://www.w3.org/2000/svg" version="1.2" viewBox="0 0 375 375" id="next-js">
    <defs>
      <clipPath id="a">
        <path d="M0 74.414h375v226.5H0zm0 0"></path>
      </clipPath>
    </defs>
    <g clip-path="url(#a)">
      <path d="M88.516 133.57h70.707v5.637H94.996v42.418h60.399v5.637H94.996v46.57h64.961v5.64H88.516zm77.039 0h7.515l33.29 46.57 34.027-46.57 46.281-59.156-76.04 110.625 39.188 54.434h-7.812l-35.645-49.543-35.793 49.543h-7.66l39.473-54.434zm87.058 5.637v-5.637h80.578v5.637h-37.125v100.262h-6.476V139.207zM.063 133.57h8.101L119.88 301.23l-46.164-61.757L6.84 141.582l-.293 97.89H.063zm332.468 98.567c-1.316 0-2.312-1.035-2.312-2.364 0-1.328.996-2.359 2.312-2.359 1.34 0 2.32 1.031 2.32 2.36 0 1.328-.98 2.363-2.32 2.363zm6.371-6.211h3.47c.042 1.887 1.421 3.148 3.433 3.148 2.257 0 3.53-1.355 3.53-3.906V209.02h3.536v16.164c0 4.59-2.648 7.234-7.027 7.234-4.117 0-6.942-2.563-6.942-6.492zm18.59-.207h3.5c.293 2.176 2.406 3.547 5.453 3.547 2.836 0 4.914-1.47 4.914-3.496 0-1.739-1.324-2.79-4.336-3.5l-2.93-.715c-4.113-.961-5.988-2.957-5.988-6.313 0-4.07 3.31-6.773 8.274-6.773 4.621 0 7.988 2.703 8.195 6.55h-3.433c-.332-2.105-2.16-3.421-4.813-3.421-2.789 0-4.648 1.351-4.648 3.41 0 1.629 1.199 2.562 4.164 3.258l2.504.617c4.664 1.094 6.59 2.996 6.59 6.426 0 4.367-3.375 7.109-8.762 7.109-5.047 0-8.434-2.61-8.684-6.7zm0 0"></path>
    </g>
  </symbol>
  <symbol xmlns="http://www.w3.org/2000/svg" version="1.2" viewBox="0 0 375 375" id="node-js">
    <defs>
      <clipPath id="a">
        <path d="M24 1h327.938v374H24zm0 0"></path>
      </clipPath>
    </defs>
    <g clip-path="url(#a)">
      <path d="M147.543 328.738c-9.606 5.555-11.43 6.211-20.461 9.399-2.184.75-5.488 2.07 1.25 5.93l45.227 27.042a28.308 28.308 0 0014.222 3.86l.031.031c4.977 0 9.887-1.34 14.208-3.86l135.402-79c8.797-5.18 14.223-14.75 14.223-24.972V109.262c0-10.301-5.41-19.867-14.223-24.973L202.02 5.211c-8.5-4.883-19.868-4.883-28.446 0l-135.246 79c-8.781 5.121-14.207 14.75-14.207 24.977V267.09c0 10.3 5.41 19.87 14.207 24.973l35.48 20.68c17.157 8.605 23.301 8.605 31.145 8.605 25.438 0 40.098-15.559 40.098-42.68V122.691c0-2.21-1.828-3.921-3.961-3.921h-17.156c-2.2 0-3.961 1.695-3.961 3.921V278.59c0 12.074-12.32 24.008-32.489 13.863L50.398 270.81c-1.293-.668-2.105-2.149-2.105-3.641V109.262c0-1.54.812-3.032 2.121-3.782L185.66 26.484c1.235-.746 2.934-.746 4.18 0l135.324 78.922a4.428 4.428 0 012.121 3.781v157.981c0 1.46-.793 2.957-2.043 3.703l-135.402 79c-1.168.746-2.93.746-4.18 0l-34.746-20.82c-1.031-.668-2.34-.903-3.371-.313zm0 0" fill="#8cc03e"></path>
    </g>
    <path d="M229.578 242.258c-35.84 0-43.7-9.121-46.32-27.121a3.888 3.888 0 00-3.883-3.332h-17.512c-2.199 0-3.886 1.773-3.886 3.922 0 23.043 12.382 50.539 71.68 50.539 42.792-.079 67.452-17.18 67.452-46.977l-.046.016c0-29.563-19.793-37.422-61.356-42.977-42.078-5.633-46.32-8.527-46.32-18.453 0-8.219 3.605-19.188 34.75-19.188 27.789 0 38.05 6.07 42.293 25.036.36 1.789 1.98 3.113 3.824 3.113h17.59c1.094 0 2.12-.434 2.855-1.262.73-.824 1.09-1.93 1.028-3.031-2.711-32.68-24.188-47.863-67.59-47.863-38.633 0-61.653 16.46-61.653 44.082 0 29.937 22.942 38.246 59.965 41.933 44.356 4.387 47.79 10.97 47.79 19.793.03 15.266-12.137 21.77-40.66 21.77zm0 0" fill="#8cc03e"></path>
  </symbol>
  <symbol xmlns="http://www.w3.org/2000/svg" version="1.2" viewBox="0 0 375 375" id="python">
    <defs>
      <clipPath id="a">
        <path d="M5 4.922h260V284H5zm0 0"></path>
      </clipPath>
      <clipPath id="b">
        <path d="M110 91h261v279.172H110zm0 0"></path>
      </clipPath>
    </defs>
    <g clip-path="url(#a)">
      <path d="M192.277 4.922c-14.945.047-25.304 1.363-37.824 3.527-36.976 6.442-43.71 19.969-43.71 44.899v38.101h86.484v19.23H65.652c-25.328 0-47.5 11.942-54.523 40.563-7.938 32.852-8.293 53.426 0 87.73 6.293 25.583 20.16 44.766 45.5 44.766H91.53v-49.074c0-28.516 25.813-56.684 55.387-56.684h69.535c24.246 0 48.047-17.902 48.047-42.082v-82.55c0-23.45-16.902-40.985-40.531-44.918.586-.055-16.875-3.567-31.692-3.508zm-47.894 38.457c7.89 0 14.414 6.508 14.414 14.441 0 8.008-6.524 14.403-14.414 14.403-8.043 0-14.414-6.383-14.414-14.403 0-7.902 6.37-14.441 14.414-14.441zm0 0" fill="#0277bd"></path>
    </g>
    <g clip-path="url(#b)">
      <path d="M182.965 370.266c14.941-.047 25.3-1.364 37.82-3.528 36.98-6.441 43.715-19.968 43.715-44.898v-38.102h-86.484v-19.23h131.582c25.328 0 47.5-11.942 54.523-40.563 7.938-32.851 8.293-53.425 0-87.73-6.305-25.582-20.172-44.766-45.512-44.766h-34.898v49.074c0 28.516-25.813 56.684-55.39 56.684h-69.532c-24.246 0-48.047 17.902-48.047 42.082v82.55c0 23.45 16.903 40.985 40.531 44.919-.585.055 16.875 3.566 31.692 3.508zm47.902-38.457c-7.89 0-14.414-6.508-14.414-14.442 0-8.008 6.524-14.402 14.414-14.402 8.043 0 14.414 6.383 14.414 14.402 0 7.903-6.379 14.442-14.414 14.442zm0 0" fill="#ffc107"></path>
    </g>
  </symbol>
  <symbol xmlns="http://www.w3.org/2000/svg" version="1.2" viewBox="0 0 375 375" id="SASS">
    <path fill="#fff" d="M0 0h375v375H0z"></path>
    <path fill="#fff" d="M0 0h375v375H0z"></path>
    <path fill="#fff" d="M0 0h375v375H0z"></path>
    <path d="M187.426.3C291.023.3 375 84.278 375 187.876c0 103.59-83.977 187.574-187.574 187.574-103.59 0-187.574-83.972-187.574-187.574C-.141 84.277 83.836.301 187.426.301zm0 0" fill-rule="evenodd" fill="#f06292"></path>
    <path d="M305.086 80.582c-8.496-33.316-63.734-44.266-116.008-25.695-31.11 11.054-64.793 28.402-89.012 51.054-28.796 26.934-33.382 50.375-31.496 60.168 6.676 34.559 54.032 57.153 73.496 73.918v.106c-5.742 2.828-47.754 24.086-57.582 45.824-10.379 22.934 1.653 39.39 9.614 41.61 24.672 6.859 49.98-5.481 63.59-25.77 13.128-19.59 12.039-44.871 6.335-57.453 7.868-2.078 17.047-3.008 28.704-1.645 32.902 3.844 39.359 24.387 38.12 32.988-1.234 8.598-8.14 13.325-10.445 14.754-2.308 1.43-3.004 1.926-2.816 2.98.281 1.54 1.344 1.485 3.316 1.157 2.707-.46 17.274-6.992 17.903-22.867.793-20.152-18.512-42.688-52.703-42.106-14.082.243-22.934 1.579-29.336 3.965-.47-.535-.957-1.07-1.446-1.605-21.136-22.559-60.218-38.508-58.562-68.824.601-11.028 4.437-40.047 75.086-75.254 57.875-28.844 104.207-20.903 112.215-3.32 11.441 25.132-24.762 71.831-84.868 78.574-22.902 2.562-34.96-6.309-37.96-9.618-3.157-3.476-3.63-3.636-4.801-2.976-1.918 1.058-.707 4.133 0 5.965 1.793 4.672 9.164 12.953 21.71 17.078 11.044 3.629 37.93 5.61 70.45-6.965 36.41-14.098 64.851-53.29 56.496-86.043zM150.148 250.355c2.727 10.094 2.426 19.512-.382 28.04a45.68 45.68 0 01-1.036 2.808 51.85 51.85 0 01-1.21 2.746c-2.172 4.508-5.094 8.73-8.668 12.63-10.903 11.89-26.125 16.382-32.649 12.593-7.05-4.086-3.516-20.844 9.117-34.211 13.59-14.367 33.149-23.61 33.149-23.61l-.028-.054c.563-.309 1.137-.621 1.707-.942zm0 0" fill="#fff"></path>
  </symbol>
  <symbol xmlns="http://www.w3.org/2000/svg" version="1.2" viewBox="0 0 375 375" id="react-js">
    <g fill="#53c1de">
      <path d="M221.047 186.61c0 1.097-.055 2.195-.16 3.285a33.434 33.434 0 01-2.395 9.547 32.249 32.249 0 01-1.406 2.972c-.52.969-1.082 1.91-1.691 2.824a34.989 34.989 0 01-1.961 2.64c-.7.852-1.434 1.665-2.211 2.438a32.71 32.71 0 01-2.442 2.211 33.294 33.294 0 01-5.469 3.653c-.968.515-1.96.984-2.976 1.406a33.193 33.193 0 01-6.293 1.906 33.049 33.049 0 01-6.543.645 33.049 33.049 0 01-6.543-.645 33.2 33.2 0 01-6.293-1.906 34.494 34.494 0 01-2.976-1.406 33.294 33.294 0 01-5.469-3.652 32.71 32.71 0 01-2.442-2.212 32.732 32.732 0 01-2.21-2.437 34.989 34.989 0 01-1.962-2.64 34.366 34.366 0 01-1.69-2.825 32.249 32.249 0 01-1.407-2.973 33.434 33.434 0 01-2.555-12.832c0-1.097.055-2.191.16-3.285a33.674 33.674 0 012.395-9.547 32.737 32.737 0 011.406-2.972 34.56 34.56 0 011.691-2.825 34.989 34.989 0 011.961-2.64c.7-.848 1.434-1.66 2.211-2.438a32.71 32.71 0 012.442-2.21 34.283 34.283 0 012.644-1.962 34.366 34.366 0 012.825-1.69c.968-.517 1.96-.985 2.976-1.407a34.353 34.353 0 013.098-1.11 34.396 34.396 0 013.195-.796 33.674 33.674 0 013.254-.485 34.27 34.27 0 013.289-.16c1.098 0 2.195.055 3.29.16a34.396 34.396 0 016.45 1.281c1.05.32 2.084.692 3.096 1.11a34.25 34.25 0 012.976 1.406c.97.52 1.91 1.082 2.825 1.691a34.283 34.283 0 012.644 1.961 32.71 32.71 0 012.442 2.211c.777.778 1.511 1.59 2.21 2.438a34.9 34.9 0 011.962 2.64 34.436 34.436 0 011.69 2.825c.52.968.99 1.96 1.407 2.972a32.181 32.181 0 011.11 3.102 33.674 33.674 0 011.285 6.445c.105 1.094.16 2.188.16 3.285zm0 0"></path>
      <path d="M70.531 245.984c3.297 1.094 6.594 2.203 9.969 3.153a282.552 282.552 0 00-2.938 13.183c-7.687 40.633-1.687 72.832 17.5 83.89 19.782 11.415 53.032-.296 85.407-28.624a215.836 215.836 0 007.687-7.106c3.219 3.153 6.594 6.153 9.953 9.075 31.344 26.937 62.328 37.836 81.453 26.797 19.782-11.418 26.22-46.04 17.875-88.204a290.598 290.598 0 00-2.203-9.886c2.344-.653 4.61-1.387 6.891-2.121C344.391 232.164 375 209.535 375 186.328c0-22.176-28.86-43.695-68.703-57.39v-.016a384.088 384.088 0 00-11.86-3.73c.657-2.704 1.25-5.422 1.829-8.122 9.015-43.632 3.078-78.675-16.922-90.25-19.266-11.054-50.688.438-82.469 28.114-3.156 2.699-6.219 5.558-9.156 8.414a236.353 236.353 0 00-6.078-5.637c-33.328-29.578-66.72-42.023-86.72-30.375-19.187 11.137-24.905 44.148-16.843 85.406a264.87 264.87 0 002.703 12.23 205.115 205.115 0 00-13.625 4.325C28.046 142.836 0 164.215 0 186.328c0 22.848 29.875 45.742 70.531 59.656zm99.61 59.637a134.102 134.102 0 01-41.313 25.848c-8.125 3.87-17.5 4.246-25.86.953-11.64-6.73-16.484-32.578-9.89-67.356.813-4.09 1.688-8.199 2.703-12.226 16.406 3.512 32.953 5.933 49.735 7.168a384.195 384.195 0 0031.64 39.086c-2.344 2.265-4.687 4.469-7.031 6.511zm93.015-137.453c-3.437-6.45-6.953-12.887-10.625-19.18a495.294 495.294 0 00-11.203-18.441c11.797 1.469 23.078 3.433 33.625 5.855-3.375 10.84-7.328 21.38-11.797 31.766zm.14 36.45a337.086 337.086 0 0112.376 32.433c-11.36 2.562-22.844 4.543-34.422 5.855 3.953-6.152 7.688-12.445 11.36-18.738 3.734-6.45 7.25-12.961 10.687-19.55zm-8.468-18.212a491.722 491.722 0 01-15.812 29.86c-5.563 9.73-11.5 19.175-17.72 28.547-10.905.812-22.265 1.171-33.765 1.171s-22.625-.359-33.39-1.03a444.646 444.646 0 01-18.016-28.548c-5.64-9.73-10.844-19.613-15.75-29.719h-.031c4.828-10.101 10.11-19.988 15.672-29.718 5.562-9.727 11.578-19.176 17.875-28.469a455.489 455.489 0 0133.625-1.25c11.437 0 22.703.438 33.625 1.25a518.148 518.148 0 0117.797 28.328c5.64 9.668 10.906 19.555 15.89 29.578zM122.375 149.13c-3.594 6.215-7.11 12.574-10.406 19.023-4.61-10.902-8.5-21.582-11.719-31.906 10.547-2.344 21.75-4.246 33.39-5.715-3.859 6.074-7.671 12.29-11.265 18.598zm-10.39 56.066c3.374 6.45 6.812 12.82 10.468 19.114 3.734 6.37 7.547 12.742 11.578 18.957a331.704 331.704 0 01-33.984-5.496c3.219-10.543 7.25-21.442 11.937-32.575zm76.109 82.625c-7.469-8.043-14.938-16.96-22.188-26.562 7.031.297 14.281.437 21.61.437 7.547 0 14.937-.14 22.265-.515-6.734 9.289-13.984 18.16-21.687 26.64zm95.734 21.989c-.672 8.918-5.062 17.253-12.094 22.894-11.64 6.73-36.468-2.047-63.28-25.035-3.079-2.637-6.157-5.496-9.298-8.418a362.404 362.404 0 0030.906-39.227 361.93 361.93 0 0049.954-7.683c.734 3 1.39 5.996 1.984 8.933 3.594 15.817 4.172 32.278 1.828 48.536zm6.36-169.532c3.812 1.09 7.468 2.262 10.984 3.434 34.125 11.71 58.078 29.14 58.078 42.46 0 14.352-25.563 32.876-62.11 44.946-2.046.656-4.093 1.313-6.218 1.906-5.125-15.96-11.422-31.546-18.672-46.71 7.031-14.93 12.969-30.313 17.938-46.036zm-83-73.492c27.265-23.707 52.671-33 64.25-26.344 12.375 7.106 17.14 35.793 9.375 73.489-.516 2.484-1.032 4.906-1.688 7.324-16.266-3.652-32.734-6.293-49.297-7.762-9.516-13.633-19.922-26.656-31.203-38.883a307.24 307.24 0 018.563-7.824zM187.655 85.82a320.575 320.575 0 0121.672 26.192 482.545 482.545 0 00-43.578 0 369.383 369.383 0 0121.906-26.192zm-84.969-44.867C115 33.785 142.314 44.031 171.094 69.5c1.828 1.61 3.656 3.375 5.562 5.125-11.36 12.21-21.828 25.234-31.422 38.852-16.547 1.468-32.953 4.03-49.218 7.62-.954-3.73-1.75-7.542-2.563-11.35-6.89-35.434-2.344-62.138 9.234-68.794zm-30.39 103.195c4.172-1.468 8.422-2.78 12.672-4.027a390.27 390.27 0 0017.937 46.55A399.47 399.47 0 0084.75 233.88l-.016.016a171.346 171.346 0 01-9.078-2.856c-15.594-4.902-33.328-12.664-46.14-22.832-7.391-5.121-12.375-13.023-13.766-21.894 0-13.399 23.14-30.532 56.547-42.165zm0 0"></path>
    </g>
  </symbol>
  <symbol xmlns="http://www.w3.org/2000/svg" version="1.2" viewBox="0 0 375 375" id="SQL">
    <defs>
      <clipPath id="a">
        <path d="M39.844 0h297.75v375H39.844zm0 0"></path>
      </clipPath>
      <clipPath id="b">
        <path d="M39.844 271h297.75v104H39.844zm0 0"></path>
      </clipPath>
      <clipPath id="c">
        <path d="M259 0h78.594v78H259zm0 0"></path>
      </clipPath>
    </defs>
    <g clip-path="url(#a)">
      <path d="M298.75 375H78.781c-21.437 0-38.816-17.367-38.816-38.793V38.793C39.965 17.367 57.344 0 78.78 0h181.15l77.636 77.586v258.621c0 21.426-17.378 38.793-38.816 38.793" fill="#d5d0ec"></path>
    </g>
    <g clip-path="url(#b)">
      <path d="M298.75 375H78.781c-21.437 0-38.816-17.367-38.816-38.793v-64.656h297.601v64.656c0 21.426-17.378 38.793-38.816 38.793" fill="#5355af"></path>
    </g>
    <g clip-path="url(#c)">
      <path d="M337.566 77.586H298.75c-21.441 0-38.82-17.367-38.82-38.793V0l77.636 77.586" fill="#8484ca"></path>
    </g>
    <path d="M130.54 303.879h12.937a6.47 6.47 0 006.472-6.465 6.47 6.47 0 00-6.472-6.465h-12.938c-10.703 0-19.41 8.7-19.41 19.395s8.707 19.398 19.41 19.398c3.566 0 6.469 2.903 6.469 6.465 0 3.563-2.903 6.465-6.469 6.465h-12.937a6.47 6.47 0 00-6.473 6.465 6.47 6.47 0 006.473 6.465h12.937c10.703 0 19.41-8.7 19.41-19.395s-8.707-19.398-19.41-19.398c-3.566 0-6.469-2.899-6.469-6.465 0-3.563 2.903-6.465 6.47-6.465m129.39 38.793h-19.407v-45.258a6.468 6.468 0 00-6.468-6.465 6.47 6.47 0 00-6.473 6.465v51.723a6.47 6.47 0 006.473 6.465h25.875a6.47 6.47 0 006.472-6.465 6.47 6.47 0 00-6.472-6.465m-71.164 0c-7.012 0-12.938-8.883-12.938-19.395 0-10.515 5.926-19.398 12.938-19.398 7.011 0 12.937 8.883 12.937 19.398 0 3.141-.527 6.133-1.46 8.79l-6.903-6.895a6.467 6.467 0 00-9.149 0 6.458 6.458 0 000 9.14l7.746 7.747a8.66 8.66 0 01-3.171.613zm21.199-.89c2.945-5.247 4.68-11.626 4.68-18.505 0-17.824-11.61-32.328-25.88-32.328-14.269 0-25.878 14.504-25.878 32.328 0 17.825 11.61 32.325 25.879 32.325 4.578 0 8.875-1.497 12.613-4.114l2.223 2.223a6.447 6.447 0 004.574 1.89 6.462 6.462 0 004.574-11.035l-2.785-2.785" fill="#fff"></path>
    <path d="M130.54 90.516v116.382c0 7.141 26.065 12.93 58.226 12.93 32.16 0 58.226-5.789 58.226-12.93V90.516H130.54" fill="#8484ca"></path>
    <path d="M246.992 90.516c0 7.144-26.066 12.933-58.226 12.933s-58.227-5.789-58.227-12.933c0-7.141 26.066-12.93 58.227-12.93 32.16 0 58.226 5.789 58.226 12.93" fill="#fff"></path>
    <path d="M188.766 174.57c-33.465 0-53.774-5.02-58.227-7.992v13.77c9.957 3.91 27.406 7.152 58.227 7.152 30.816 0 48.27-3.242 58.226-7.152v-13.77c-4.453 2.973-24.762 7.992-58.226 7.992m0-38.793c-33.465 0-53.774-5.02-58.227-7.992v13.77c9.957 3.91 27.406 7.152 58.227 7.152 30.816 0 48.27-3.242 58.226-7.152v-13.77c-4.453 2.973-24.762 7.992-58.226 7.992" fill="#5355af"></path>
  </symbol>
  <symbol xmlns="http://www.w3.org/2000/svg" version="1.2" viewBox="0 0 375 375" id="bootstrap">
    <path d="M375 322.918c0 28.77-23.313 52.082-52.082 52.082H52.082C23.324 375 0 351.687 0 322.918V52.082C0 23.312 23.324 0 52.082 0h270.836C351.688 0 375 23.313 375 52.082zm0 0" fill="#673ab7"></path>
    <path d="M281.563 204.168c-6.77-9.375-16.563-15.836-29.168-19.273 0 0 10.625-3.852 20.21-18.227 5.727-9.168 8.645-20.211 8.645-33.125 0-22.398-8.125-39.586-24.375-51.356-16.25-11.769-34.582-19.687-65.73-19.687H93.75v250h108.645c29.48-.207 51.667-6.563 66.773-18.75 15-12.395 22.5-30.73 22.5-55.207 0-13.543-3.336-25-10.106-34.375zm-125.313-100h44.27c15.835 0 28.648 12.812 28.648 28.644 0 15.833-12.813 28.645-28.648 28.645h-44.27zm52.082 166.664H156.25v-62.5h52.082c17.293 0 31.25 13.961 31.25 31.25 0 17.293-13.957 31.25-31.25 31.25zm0 0" fill="#fff"></path>
  </symbol>
  <symbol xmlns="http://www.w3.org/2000/svg" version="1.2" viewBox="0 0 375 375" id="css">
    <defs>
      <clipPath id="a">
        <path d="M19.688 0h336v375h-336zm0 0"></path>
      </clipPath>
    </defs>
    <g clip-path="url(#a)">
      <path d="M356.012 0H19.738L49.41 335.527 187.875 375l138.469-39.473zm0 0" fill="#0277bd"></path>
    </g>
    <path d="M187.875 29.605v314.801l110.773-31.578 24.727-283.223zm0 0" fill="#039be5"></path>
    <path d="M277.879 78.95h-90.004v39.472h48.465l-2.969 39.473h-45.496v39.472h43.52l-2.97 44.41-40.55 13.817v41.445l78.137-25.656 6.922-113.488zm0 0" fill="#fff"></path>
    <path d="M187.875 78.95v39.472H99.852l-2.97-39.473zm-45.496 78.945l1.976 39.472h43.52v-39.472zm3.957 59.21h-39.563l2.97 54.278 78.132 25.656v-41.445l-40.55-13.817zm0 0" fill="#eee"></path>
  </symbol>
  <symbol xmlns="http://www.w3.org/2000/svg" preserveAspectRatio="xMidYMid" viewBox="0 0 512 148.3" id="express-js">
    <path d="M3.332 115.63V58.648h71.144v-3.333H3.332V3.332h75.642V0H0v118.96h79.641v-3.33H3.332zm140.46-82.308l-29.49 38.821-28.828-38.821h-4.332l31.16 41.32-34.159 44.318h4l32.16-41.818 32.32 41.818h4.16l-34.32-44.318 31.33-41.32h-4zm16.99 114.97V94.971h.33c2 7.771 5.95 14.021 11.83 18.741 5.89 4.72 13.39 7.08 22.5 7.08 5.88 0 11.1-1.19 15.66-3.58 4.55-2.39 8.36-5.64 11.41-9.74 3.06-4.11 5.39-8.891 7-14.334 1.61-5.442 2.41-11.163 2.41-17.161 0-6.442-.83-12.385-2.49-17.827-1.67-5.443-4.09-10.164-7.25-14.162-3.17-3.999-7-7.109-11.5-9.331-4.5-2.221-9.58-3.332-15.24-3.332-4.34 0-8.36.639-12.08 1.916-3.72 1.278-7.03 3.082-9.92 5.415a36.842 36.842 0 00-7.49 8.247 37.97 37.97 0 00-4.84 10.414h-.33V33.324h-3.33v114.97h3.33zm34.66-30.66c-10.44 0-18.83-3.58-25.16-10.75-6.33-7.162-9.5-17.465-9.5-30.905 0-5.554.78-10.83 2.33-15.828 1.56-4.998 3.81-9.386 6.75-13.162 2.94-3.777 6.58-6.776 10.91-8.997 4.34-2.222 9.22-3.333 14.67-3.333 5.55 0 10.41 1.111 14.57 3.333 4.17 2.221 7.61 5.248 10.33 9.08 2.73 3.832 4.78 8.22 6.17 13.162 1.39 4.943 2.08 10.191 2.08 15.745 0 4.999-.64 9.969-1.91 14.912-1.28 4.943-3.25 9.383-5.92 13.333-2.66 3.94-6.08 7.16-10.25 9.66-4.16 2.5-9.19 3.75-15.07 3.75zm54.81 1.33V70.479c0-4.665.67-9.219 2-13.662s3.39-8.359 6.17-11.746c2.77-3.388 6.3-6.054 10.58-7.998 4.27-1.944 9.35-2.749 15.24-2.416v-3.332c-5.11-.111-9.58.444-13.41 1.666s-7.14 2.888-9.91 4.999c-2.78 2.11-5 4.581-6.67 7.414a32.777 32.777 0 00-3.66 9.08h-.34v-21.16h-3.33v85.638h3.33zm38.16-42.152h71.64c.22-5.887-.36-11.551-1.75-16.994s-3.61-10.275-6.66-14.495c-3.06-4.221-7-7.609-11.83-10.164-4.84-2.555-10.58-3.832-17.25-3.832-4.77 0-9.44 1-13.99 2.999-4.56 2-8.56 4.915-12 8.747s-6.22 8.525-8.33 14.079-3.17 11.885-3.17 18.994c0 6.331.73 12.246 2.17 17.744s3.67 10.274 6.66 14.324c3 4.06 6.86 7.2 11.58 9.42s10.42 3.28 17.08 3.16c9.78 0 18-2.75 24.66-8.24 6.66-5.5 10.61-13.249 11.83-23.246h-3.33c-1.45 9.442-5.14 16.526-11.08 21.246s-13.41 7.08-22.41 7.08c-6.11 0-11.28-1.06-15.5-3.17s-7.66-5-10.33-8.66c-2.66-3.67-4.63-7.971-5.91-12.914-1.28-4.942-1.97-10.302-2.08-16.078zm68.31-3.332h-68.31c.33-5.998 1.44-11.385 3.33-16.161 1.89-4.777 4.36-8.859 7.41-12.246 3.06-3.388 6.61-5.971 10.67-7.748 4.05-1.777 8.41-2.666 13.07-2.666 5.56 0 10.45 1.028 14.67 3.083s7.74 4.859 10.58 8.414c2.83 3.554 4.97 7.692 6.41 12.412 1.45 4.721 2.17 9.692 2.17 14.912zm72.47-14.828h3.34c0-9.553-2.78-16.495-8.33-20.827-5.56-4.332-13.11-6.498-22.66-6.498-5.34 0-9.83.667-13.5 1.999-3.67 1.333-6.66 3.055-9 5.165-2.33 2.111-4 4.443-5 6.998-.99 2.555-1.49 4.999-1.49 7.331 0 4.665.83 8.386 2.49 11.163 1.67 2.777 4.28 4.943 7.84 6.498 2.44 1.111 5.22 2.11 8.33 2.999s6.72 1.833 10.83 2.832c3.66.889 7.27 1.778 10.83 2.666 3.55.889 6.69 2.083 9.41 3.582 2.72 1.5 4.94 3.416 6.66 5.749 1.73 2.332 2.59 5.387 2.59 9.163 0 3.662-.86 6.772-2.59 9.332a20.802 20.802 0 01-6.58 6.25c-2.66 1.61-5.63 2.77-8.91 3.5-3.28.72-6.47 1.08-9.58 1.08-10.11 0-17.86-2.25-23.24-6.75-5.39-4.5-8.08-11.579-8.08-21.243h-3.34c0 10.773 2.92 18.663 8.75 23.663 5.83 4.99 14.47 7.49 25.91 7.49 3.66 0 7.36-.41 11.08-1.25 3.72-.83 7.05-2.19 10-4.08 2.94-1.89 5.33-4.33 7.16-7.33s2.75-6.66 2.75-10.995c0-4.11-.81-7.442-2.42-9.997-1.61-2.554-3.72-4.665-6.33-6.331s-5.55-2.971-8.83-3.915c-3.28-.945-6.58-1.861-9.91-2.749a1734.29 1734.29 0 00-12.25-3.166c-3.5-.889-6.75-1.944-9.75-3.166-2.88-1.222-5.19-2.971-6.91-5.248s-2.58-5.526-2.58-9.747c0-.777.22-2.166.66-4.165.45-2 1.5-4.027 3.17-6.082 1.67-2.054 4.22-3.887 7.66-5.498 3.45-1.61 8.17-2.416 14.17-2.416 4.11 0 7.85.445 11.24 1.333 3.39.889 6.31 2.305 8.75 4.249s4.33 4.415 5.66 7.414c1.34 2.999 2 6.665 2 10.997zm77.15 0h3.33c0-9.553-2.78-16.495-8.33-20.827-5.56-4.332-13.11-6.498-22.66-6.498-5.33 0-9.83.667-13.5 1.999-3.66 1.333-6.66 3.055-9 5.165-2.33 2.111-3.99 4.443-4.99 6.998s-1.5 4.999-1.5 7.331c0 4.665.83 8.386 2.5 11.163 1.66 2.777 4.27 4.943 7.83 6.498 2.44 1.111 5.22 2.11 8.33 2.999s6.72 1.833 10.83 2.832c3.66.889 7.27 1.778 10.83 2.666 3.55.889 6.69 2.083 9.41 3.582 2.72 1.5 4.94 3.416 6.67 5.749 1.72 2.332 2.58 5.387 2.58 9.163 0 3.662-.86 6.772-2.58 9.332a20.94 20.94 0 01-6.59 6.25c-2.66 1.61-5.63 2.77-8.91 3.5-3.28.72-6.47 1.08-9.58 1.08-10.11 0-17.86-2.25-23.24-6.75-5.39-4.5-8.08-11.579-8.08-21.243h-3.34c0 10.773 2.92 18.663 8.75 23.663 5.83 4.99 14.47 7.49 25.91 7.49 3.67 0 7.36-.41 11.08-1.25 3.72-.83 7.05-2.19 10-4.08 2.94-1.89 5.33-4.33 7.16-7.33s2.75-6.66 2.75-10.995c0-4.11-.81-7.442-2.42-9.997-1.61-2.554-3.72-4.665-6.33-6.331s-5.55-2.971-8.83-3.915a496.81 496.81 0 00-9.91-2.749 1734.29 1734.29 0 00-12.25-3.166c-3.5-.889-6.74-1.944-9.74-3.166-2.89-1.222-5.2-2.971-6.92-5.248s-2.58-5.526-2.58-9.747c0-.777.22-2.166.67-4.165.44-2 1.5-4.027 3.16-6.082 1.67-2.054 4.22-3.887 7.67-5.498 3.44-1.61 8.16-2.416 14.16-2.416 4.11 0 7.86.445 11.24 1.333 3.39.889 6.31 2.305 8.75 4.249s4.33 4.415 5.67 7.414c1.33 2.999 2 6.665 2 10.997z" fill="#222"></path>
  </symbol>
  <symbol xmlns="http://www.w3.org/2000/svg" version="1.2" viewBox="0 0 375 375" id="firebase">
    <path d="M52.367 298.14L181.211 56.89c2.715-5.081 10.055-4.992 12.633.172l44.59 89.051zm0 0" fill="#ff8f00"></path>
    <path d="M52.367 298.074L99.273 9.23c1.227-7.558 11.391-9.195 14.942-2.406l90.387 173.008zm0 0" fill="#ffa000"></path>
    <path d="M52.434 298.023l1.691-1.324 148.254-121.125-41.816-80.035zm0 0" fill="#ff6f00"></path>
    <path d="M52.367 298.14L277.895 80.974c4.73-4.555 12.62-1.868 13.585 4.617l31.528 212.55-126.863 73.844a16.945 16.945 0 01-16.586 0zm0 0" fill="#ffc400"></path>
  </symbol>
  <symbol xmlns="http://www.w3.org/2000/svg" version="1.2" viewBox="0 0 375 375" id="github">
    <path d="M187.5 3.125C83.953 3.125 0 87.078 0 190.625 0 278.485 60.5 352 142.063 372.344c-.875-2.531-1.438-5.469-1.438-9.11v-32.046h-23.563c-12.828 0-24.234-5.516-29.765-15.766-6.14-11.39-7.203-28.813-22.422-39.469-4.516-3.547-1.078-7.594 4.125-7.047 9.61 2.719 17.578 9.313 25.078 19.094 7.469 9.797 10.984 12.016 24.938 12.016 6.765 0 16.89-.391 26.421-1.891 5.125-13.016 13.985-25 24.813-30.656-62.438-6.422-92.234-37.485-92.234-79.656 0-18.157 7.734-35.72 20.875-50.516-4.313-14.688-9.735-44.64 1.656-56.047 28.094 0 45.078 18.219 49.156 23.14 14-4.796 29.375-7.515 45.531-7.515 16.188 0 31.625 2.719 45.657 7.547 4.03-4.89 21.03-23.172 49.187-23.172 11.438 11.422 5.953 41.5 1.594 56.156 13.062 14.766 20.75 32.281 20.75 50.406 0 42.141-29.75 73.188-92.094 79.641 17.156 8.953 29.672 34.11 29.672 53.063v42.718c0 1.625-.36 2.797-.547 4.188C322.516 341.812 375 272.437 375 190.625c0-103.547-83.953-187.5-187.5-187.5zm0 0"></path>
  </symbol>
  <symbol xmlns="http://www.w3.org/2000/svg" version="1.0" viewBox="1.9 0 28.2 32" id="html5">
    <path d="M4.46 28.802L1.892.001h28.216l-2.57 28.797L15.982 32z" fill="#e44d26"></path>
    <path d="M25.337 26.964l2.197-24.608H16v27.197z" fill="#f16529"></path>
    <path d="M15.988 5.888H7.142l.953 10.682H16v-3.532h-4.674l-.323-3.617H16V5.888zM16 22.2l-.015.004-3.934-1.062-.25-2.817H8.253l.495 5.546 7.236 2 .016-.005z" fill="#ebebeb"></path>
    <path d="M15.988 16.57h4.35l-.4 4.58-3.94 1.063v3.675l7.242-2.007.97-10.845H16zm8.764-9.734l.084-.948h-8.85V9.42h8.532l.07-.794z" fill="#fff"></path>
  </symbol>
  <symbol xmlns="http://www.w3.org/2000/svg" preserveAspectRatio="xMidYMid" viewBox="-32.7 0.4 319.5 348.3" id="java">
    <path d="M82.554 267.47s-13.198 7.68 9.393 10.28c27.373 3.12 41.353 2.67 71.513-3.04 0 0 7.93 4.97 19.01 9.28-67.61 28.98-153.02-1.68-99.916-16.52m-8.262-37.81s-14.803 10.96 7.805 13.3c29.233 3.01 52.323 3.26 92.273-4.44 0 0 5.53 5.61 14.22 8.67-81.75 23.9-172.8 1.89-114.3-17.53" fill="#5382A1"></path>
    <path d="M143.94 165.51c16.66 19.19-4.38 36.45-4.38 36.45s42.31-21.84 22.88-49.19c-18.15-25.5-32.06-38.17 43.27-81.856 0 0-118.24 29.526-61.77 94.596" fill="#E76F00"></path>
    <path d="M233.36 295.44s9.77 8.05-10.75 14.28c-39.03 11.82-162.44 15.39-196.72.47-12.32-5.36 10.79-12.8 18.059-14.37 7.581-1.64 11.914-1.33 11.914-1.33-13.705-9.66-88.583 18.95-38.034 27.15 137.85 22.35 251.29-10.07 215.53-26.2M88.901 190.48s-62.772 14.91-22.229 20.32c17.118 2.3 51.248 1.78 83.028-.89 25.98-2.19 52.07-6.85 52.07-6.85s-9.16 3.93-15.79 8.45c-63.75 16.77-186.89 8.97-151.44-8.18 29.984-14.49 54.361-12.85 54.361-12.85m112.609 62.94c64.8-33.67 34.83-66.03 13.92-61.67-5.12 1.07-7.41 1.99-7.41 1.99s1.9-2.98 5.54-4.27c41.37-14.54 73.19 42.9-13.36 65.65 0 0 1.01-.9 1.31-1.7" fill="#5382A1"></path>
    <path d="M162.44.371s35.89 35.9-34.04 91.101c-56.069 44.278-12.78 69.528-.02 98.378-32.731-29.53-56.75-55.53-40.636-79.72C111.4 74.613 176.92 57.394 162.44.37" fill="#E76F00"></path>
    <path d="M95.268 344.67c62.202 3.98 157.71-2.21 159.97-31.64 0 0-4.35 11.15-51.4 20.01-53.09 9.99-118.57 8.83-157.4 2.42 0 0 7.949 6.58 48.828 9.21" fill="#5382A1"></path>
  </symbol>
</svg>