<?xml version="1.0" encoding="UTF-8"?>
<svg xmlns="http://www.w3.org/2000/svg" xmlns:xlink="http://www.w3.org/1999/xlink" width="375pt" height="374.999991pt" viewBox="0 0 375 374.999991" version="1.2">
<g id="surface1">
<path style=" stroke:none;fill-rule:nonzero;fill:rgb(13.729858%,14.118958%,14.509583%);fill-opacity:1;" d="M 191.003906 145.886719 C 179.136719 145.886719 168.980469 151.886719 160.53125 163.890625 C 152.070312 175.898438 147.84375 190.394531 147.84375 207.398438 C 147.84375 216.554688 149.96875 223.605469 154.222656 228.554688 C 158.472656 233.503906 164.476562 235.984375 172.226562 235.984375 C 180.636719 235.984375 188.273438 232.878906 195.136719 226.660156 C 202.003906 220.453125 206.648438 212.394531 209.078125 202.492188 L 216.789062 170.546875 C 215.476562 162.699219 212.605469 156.628906 208.164062 152.332031 C 203.730469 148.035156 198.011719 145.886719 191.003906 145.886719 "/>
<path style=" stroke:none;fill-rule:nonzero;fill:rgb(13.729858%,14.118958%,14.509583%);fill-opacity:1;" d="M 308.140625 204.871094 C 302.070312 217.957031 293.429688 229.023438 282.21875 238.082031 C 275.773438 243.21875 268.769531 247.121094 261.203125 249.785156 C 253.640625 252.445312 245.789062 253.773438 237.664062 253.773438 C 227.761719 253.773438 220.425781 251.882812 215.664062 248.101562 C 210.902344 244.320312 208.519531 238.457031 208.519531 230.515625 L 208.519531 229.953125 C 203.378906 238.082031 197.402344 244.035156 190.582031 247.820312 C 183.765625 251.601562 175.542969 253.496094 165.921875 253.496094 C 151.71875 253.496094 140.863281 249.460938 133.34375 241.375 C 125.824219 233.296875 122.066406 221.644531 122.066406 206.414062 C 122.066406 184.652344 128.515625 166.199219 141.402344 151.066406 C 154.289062 135.9375 169.851562 128.371094 188.0625 128.371094 C 196.375 128.371094 203.332031 129.984375 208.941406 133.203125 C 214.542969 136.425781 219.164062 141.449219 222.808594 148.269531 L 230.515625 133.277344 L 252.09375 133.277344 L 231.355469 215.386719 C 231.261719 215.855469 231.167969 216.414062 231.078125 217.066406 C 230.515625 219.679688 230.234375 221.40625 230.234375 222.246094 C 230.234375 225.800781 231.472656 228.648438 233.953125 230.792969 C 236.421875 232.949219 239.667969 234.019531 243.691406 234.019531 C 248.453125 234.019531 253.472656 232.597656 258.75 229.742188 C 264.027344 226.894531 268.957031 222.945312 273.53125 217.90625 C 280.261719 210.808594 285.398438 202.519531 288.945312 193.035156 C 292.496094 183.558594 294.273438 173.492188 294.273438 162.835938 C 294.273438 139.207031 285.539062 120.011719 268.066406 105.25 C 250.597656 90.492188 227.761719 83.109375 199.554688 83.109375 C 186.660156 83.109375 174.703125 84.5625 163.679688 87.457031 C 152.65625 90.355469 142.617188 94.742188 133.554688 100.625 C 116.644531 111.179688 103.613281 124.777344 94.46875 141.402344 C 85.304688 158.03125 80.726562 176.476562 80.726562 196.75 C 80.726562 225.890625 90.515625 249.199219 110.085938 266.667969 C 129.652344 284.132812 155.738281 292.871094 188.34375 292.871094 C 203.84375 292.871094 218.957031 290.574219 233.671875 286 C 248.382812 281.425781 261.996094 274.792969 274.515625 266.105469 L 283.902344 279.976562 C 269.980469 290.53125 255.109375 298.472656 239.273438 303.796875 C 223.4375 309.121094 206.839844 311.785156 189.464844 311.785156 C 171.53125 311.785156 155.132812 309.542969 140.285156 305.058594 C 125.425781 300.578125 112.304688 293.941406 100.910156 285.164062 C 86.429688 274.140625 75.621094 261.269531 68.46875 246.5625 C 61.324219 231.847656 57.753906 215.152344 57.753906 196.46875 C 57.753906 181.054688 60.179688 166.414062 65.035156 152.542969 C 69.894531 138.671875 77.039062 125.941406 86.476562 114.359375 C 100.207031 97.640625 116.71875 84.933594 136.007812 76.25 C 155.296875 67.5625 176.753906 63.214844 200.394531 63.214844 C 215.898438 63.214844 230.609375 65.34375 244.53125 69.59375 C 258.449219 73.84375 270.355469 79.800781 280.261719 87.457031 C 292.589844 96.984375 301.835938 107.980469 308.003906 120.453125 C 314.167969 132.925781 317.253906 146.960938 317.253906 162.558594 C 317.253906 177.691406 314.210938 191.796875 308.140625 204.871094 Z M 187.496094 0.015625 C 83.957031 0.015625 0.015625 83.957031 0.015625 187.496094 C 0.015625 291.042969 83.957031 374.984375 187.496094 374.984375 C 291.042969 374.984375 374.984375 291.042969 374.984375 187.496094 C 374.984375 83.957031 291.042969 0.015625 187.496094 0.015625 "/>
</g>
</svg>
