<?xml version="1.0" encoding="UTF-8"?>
<svg xmlns="http://www.w3.org/2000/svg" xmlns:xlink="http://www.w3.org/1999/xlink" width="375pt" height="374.999991pt" viewBox="0 0 375 374.999991" version="1.2">
<g id="surface1">
<path style=" stroke:none;fill-rule:nonzero;fill:rgb(100%,56.079102%,0%);fill-opacity:1;" d="M 52.367188 298.140625 L 181.210938 56.890625 C 183.925781 51.808594 191.265625 51.898438 193.84375 57.0625 L 238.433594 146.113281 Z M 52.367188 298.140625 "/>
<path style=" stroke:none;fill-rule:nonzero;fill:rgb(100%,62.748718%,0%);fill-opacity:1;" d="M 52.367188 298.074219 L 99.273438 9.230469 C 100.5 1.671875 110.664062 0.0351562 114.214844 6.824219 L 204.601562 179.832031 Z M 52.367188 298.074219 "/>
<path style=" stroke:none;fill-rule:nonzero;fill:rgb(100%,43.528748%,0%);fill-opacity:1;" d="M 52.433594 298.023438 L 54.125 296.699219 L 202.378906 175.574219 L 160.5625 95.539062 Z M 52.433594 298.023438 "/>
<path style=" stroke:none;fill-rule:nonzero;fill:rgb(100%,76.858521%,0%);fill-opacity:1;" d="M 52.367188 298.140625 L 277.894531 80.972656 C 282.625 76.417969 290.515625 79.105469 291.480469 85.589844 L 323.007812 298.140625 L 196.144531 371.984375 C 190.996094 374.875 184.710938 374.875 179.558594 371.984375 Z M 52.367188 298.140625 "/>
</g>
</svg>
