<?xml version="1.0" encoding="UTF-8"?><svg xmlns="http://www.w3.org/2000/svg" xmlns:xlink="http://www.w3.org/1999/xlink" height="32.0" preserveAspectRatio="xMidYMid meet" version="1.0" viewBox="1.9 0.0 28.2 32.0" width="28.2" zoomAndPan="magnify">
 <g id="change1_1"><path d="m4.46 28.802l-2.568-28.801h28.216l-2.57 28.797-11.556 3.202z" fill="#e44d26"/></g>
 <g id="change2_1"><path d="m25.337 26.964l2.197-24.608h-11.534v27.197z" fill="#f16529"/></g>
 <g id="change3_1"><path d="m15.988 5.888h-8.846l0.953 10.682h7.905v-3.532h-4.674l-0.323-3.617h4.997v-3.533zm0.012 16.312l-0.015 0.004-3.934-1.062-0.25-2.817h-3.548l0.495 5.546 7.236 2 0.016-0.005z" fill="#ebebeb"/></g>
 <g id="change4_1"><path d="m15.988 16.57h4.35l-0.4 4.58-3.94 1.063v3.675l7.242-2.007 0.97-10.845h-8.21zm8.764-9.734l0.084-0.948h-8.85v3.532h8.532l0.07-0.794z" fill="#fff"/></g>
</svg>