<?xml version="1.0" encoding="UTF-8"?><svg xmlns="http://www.w3.org/2000/svg" xmlns:xlink="http://www.w3.org/1999/xlink" height="348.3" preserveAspectRatio="xMidYMid" version="1.1" viewBox="-32.7 0.4 319.5 348.3" width="319.5" zoomAndPan="magnify">
 <g>
  <path d="m82.554 267.47s-13.198 7.68 9.393 10.28c27.373 3.12 41.353 2.67 71.513-3.04 0 0 7.93 4.97 19.01 9.28-67.61 28.98-153.02-1.68-99.916-16.52" fill="#5382A1"/>
  <path d="m74.292 229.66s-14.803 10.96 7.805 13.3c29.233 3.01 52.323 3.26 92.273-4.44 0 0 5.53 5.61 14.22 8.67-81.75 23.9-172.8 1.89-114.3-17.53" fill="#5382A1"/>
  <path d="m143.94 165.51c16.66 19.19-4.38 36.45-4.38 36.45s42.31-21.84 22.88-49.19c-18.15-25.5-32.06-38.17 43.27-81.856 0 0-118.24 29.526-61.77 94.596" fill="#E76F00"/>
  <path d="m233.36 295.44s9.77 8.05-10.75 14.28c-39.03 11.82-162.44 15.39-196.72 0.47-12.32-5.36 10.79-12.8 18.059-14.37 7.581-1.64 11.914-1.33 11.914-1.33-13.705-9.66-88.583 18.95-38.034 27.15 137.85 22.35 251.29-10.07 215.53-26.2" fill="#5382A1"/>
  <path d="m88.901 190.48s-62.772 14.91-22.229 20.32c17.118 2.3 51.248 1.78 83.028-0.89 25.98-2.19 52.07-6.85 52.07-6.85s-9.16 3.93-15.79 8.45c-63.75 16.77-186.89 8.97-151.44-8.18 29.984-14.49 54.361-12.85 54.361-12.85" fill="#5382A1"/>
  <path d="m201.51 253.42c64.8-33.67 34.83-66.03 13.92-61.67-5.12 1.07-7.41 1.99-7.41 1.99s1.9-2.98 5.54-4.27c41.37-14.54 73.19 42.9-13.36 65.65 0 0 1.01-0.9 1.31-1.7" fill="#5382A1"/>
  <path d="m162.44 0.37143s35.89 35.899-34.04 91.101c-56.069 44.278-12.78 69.528-0.02 98.378-32.731-29.53-56.75-55.53-40.636-79.72 23.656-35.517 89.176-52.736 74.696-109.76" fill="#E76F00"/>
  <path d="m95.268 344.67c62.202 3.98 157.71-2.21 159.97-31.64 0 0-4.35 11.15-51.4 20.01-53.09 9.99-118.57 8.83-157.4 2.42 0 0 7.949 6.58 48.828 9.21" fill="#5382A1"/>
 </g>
</svg>