<?xml version="1.0" encoding="UTF-8"?>
<svg xmlns="http://www.w3.org/2000/svg" xmlns:xlink="http://www.w3.org/1999/xlink" width="375pt" height="374.999991pt" viewBox="0 0 375 374.999991" version="1.2">
<defs>
<clipPath id="clip1">
  <path d="M 0 37.03125 L 375 37.03125 L 375 337.78125 L 0 337.78125 Z M 0 37.03125 "/>
</clipPath>
</defs>
<g id="surface1">
<g clip-path="url(#clip1)" clip-rule="nonzero">
<path style=" stroke:none;fill-rule:nonzero;fill:rgb(13.729858%,12.159729%,12.548828%);fill-opacity:1;" d="M 65.84375 311.535156 C 58.746094 311.535156 52.082031 309.613281 46.3125 306.292969 L 126.257812 217.617188 L 108.464844 201.515625 L 30.082031 288.464844 C 27.789062 283.472656 26.480469 277.9375 26.480469 272.097656 L 26.480469 116.988281 L 187.273438 240.8125 L 348.527344 121.542969 L 348.527344 272.097656 C 348.527344 277.9375 347.21875 283.472656 344.933594 288.464844 L 266.539062 201.515625 L 248.746094 217.617188 L 328.6875 306.292969 C 322.921875 309.613281 316.269531 311.535156 309.164062 311.535156 Z M 65.84375 63.558594 L 309.164062 63.558594 C 325.863281 63.558594 340.925781 74.417969 346.359375 90.160156 L 187.582031 207.59375 L 30.164062 86.363281 C 36.632812 72.453125 50.457031 63.558594 65.84375 63.558594 Z M 309.164062 37.027344 L 65.84375 37.027344 C 29.539062 37.027344 0 66.621094 0 102.996094 L 0 272.097656 C 0 308.472656 29.539062 338.070312 65.84375 338.070312 L 309.164062 338.070312 C 345.464844 338.070312 375.003906 308.472656 375.003906 272.097656 L 375.003906 102.996094 C 375.003906 66.621094 345.464844 37.027344 309.164062 37.027344 "/>
</g>
</g>
</svg>
