<?xml version="1.0" encoding="UTF-8"?>
<svg xmlns="http://www.w3.org/2000/svg" xmlns:xlink="http://www.w3.org/1999/xlink" width="375pt" height="374.999991pt" viewBox="0 0 375 374.999991" version="1.2">
<defs>
<clipPath id="clip1">
  <path d="M 18.515625 0 L 356.765625 0 L 356.765625 375 L 18.515625 375 Z M 18.515625 0 "/>
</clipPath>
</defs>
<g id="surface1">
<g clip-path="url(#clip1)" clip-rule="nonzero">
<path style=" stroke:none;fill-rule:nonzero;fill:rgb(36.468506%,25.099182%,21.569824%);fill-opacity:1;" d="M 356.8125 124.6875 C 356.8125 316.875 187.78125 375 187.78125 375 C 187.78125 375 18.75 316.875 18.75 124.6875 C 18.75 101.25 20.628906 81.5625 22.507812 65.625 C 25.324219 42.1875 41.289062 23.4375 63.824219 17.8125 C 92.9375 9.375 138.949219 0 187.78125 0 C 236.613281 0 282.625 9.375 312.675781 17.8125 C 335.214844 23.4375 351.179688 43.125 353.996094 65.625 C 354.933594 81.5625 356.8125 102.1875 356.8125 124.6875 Z M 356.8125 124.6875 "/>
<path style=" stroke:none;fill-rule:nonzero;fill:rgb(29.798889%,68.629456%,31.369019%);fill-opacity:1;" d="M 187.78125 28.125 C 233.796875 28.125 276.992188 37.5 305.164062 45 C 316.433594 47.8125 323.945312 57.1875 325.824219 69.375 C 327.703125 87.1875 328.640625 105.9375 328.640625 124.6875 C 328.640625 270.9375 220.648438 330 187.78125 344.0625 C 154.914062 329.0625 46.921875 270 46.921875 124.6875 C 46.921875 105.9375 47.859375 87.1875 49.738281 69.375 C 50.679688 57.1875 59.128906 47.8125 70.398438 45 C 98.570312 37.5 141.765625 28.125 187.78125 28.125 M 187.78125 0 C 138.949219 0 92.9375 9.375 62.886719 17.8125 C 41.289062 23.4375 24.382812 43.125 22.507812 65.625 C 20.628906 81.5625 18.75 102.1875 18.75 124.6875 C 18.75 316.875 187.78125 375 187.78125 375 C 187.78125 375 356.8125 316.875 356.8125 124.6875 C 356.8125 101.25 354.933594 81.5625 353.054688 65.625 C 350.238281 42.1875 334.273438 23.4375 311.738281 17.8125 C 282.625 9.375 236.613281 0 187.78125 0 Z M 187.78125 0 "/>
</g>
<path style=" stroke:none;fill-rule:nonzero;fill:rgb(86.268616%,92.939758%,78.42865%);fill-opacity:1;" d="M 178.390625 225 L 197.171875 225 L 197.171875 300 L 178.390625 300 Z M 178.390625 225 "/>
<path style=" stroke:none;fill-rule:nonzero;fill:rgb(29.798889%,68.629456%,31.369019%);fill-opacity:1;" d="M 187.78125 56.25 C 187.78125 56.25 131.4375 103.125 131.4375 178.125 C 131.4375 226.875 162.425781 257.8125 178.390625 271.875 L 187.78125 243.75 L 197.171875 271.875 C 213.136719 257.8125 244.125 226.875 244.125 178.125 C 244.125 103.125 187.78125 56.25 187.78125 56.25 Z M 187.78125 56.25 "/>
<path style=" stroke:none;fill-rule:nonzero;fill:rgb(50.588989%,78.039551%,51.759338%);fill-opacity:1;" d="M 187.78125 56.25 C 187.78125 56.25 131.4375 103.125 131.4375 178.125 C 131.4375 226.875 162.425781 257.8125 178.390625 271.875 L 187.78125 243.75 Z M 187.78125 56.25 "/>
</g>
</svg>
