<?xml version="1.0" encoding="UTF-8"?>
<svg xmlns="http://www.w3.org/2000/svg" xmlns:xlink="http://www.w3.org/1999/xlink" width="375pt" height="374.999991pt" viewBox="0 0 375 374.999991" version="1.2">
<defs>
<clipPath id="clip1">
  <path d="M 24 1 L 351.9375 1 L 351.9375 375 L 24 375 Z M 24 1 "/>
</clipPath>
</defs>
<g id="surface1">
<g clip-path="url(#clip1)" clip-rule="nonzero">
<path style=" stroke:none;fill-rule:nonzero;fill:rgb(54.899597%,75.289917%,24.308777%);fill-opacity:1;" d="M 147.542969 328.738281 C 137.9375 334.292969 136.113281 334.949219 127.082031 338.136719 C 124.898438 338.886719 121.59375 340.207031 128.332031 344.066406 L 173.558594 371.109375 C 177.878906 373.644531 182.867188 374.96875 187.78125 374.96875 L 187.8125 375 C 192.789062 375 197.699219 373.660156 202.019531 371.140625 L 337.421875 292.140625 C 346.21875 286.960938 351.644531 277.390625 351.644531 267.167969 L 351.644531 109.261719 C 351.644531 98.960938 346.234375 89.394531 337.421875 84.289062 L 202.019531 5.210938 C 193.519531 0.328125 182.152344 0.328125 173.574219 5.210938 L 38.328125 84.210938 C 29.546875 89.332031 24.121094 98.960938 24.121094 109.1875 L 24.121094 267.089844 C 24.121094 277.390625 29.53125 286.960938 38.328125 292.0625 L 73.808594 312.742188 C 90.964844 321.347656 97.109375 321.347656 104.953125 321.347656 C 130.390625 321.347656 145.050781 305.789062 145.050781 278.667969 L 145.050781 122.691406 C 145.050781 120.480469 143.222656 118.769531 141.089844 118.769531 L 123.933594 118.769531 C 121.734375 118.769531 119.972656 120.464844 119.972656 122.691406 L 119.972656 278.589844 C 119.972656 290.664062 107.652344 302.597656 87.484375 292.453125 L 50.398438 270.808594 C 49.105469 270.140625 48.292969 268.660156 48.292969 267.167969 L 48.292969 109.261719 C 48.292969 107.722656 49.105469 106.230469 50.414062 105.480469 L 185.660156 26.484375 C 186.894531 25.738281 188.59375 25.738281 189.839844 26.484375 L 325.164062 105.40625 C 326.476562 106.214844 327.285156 107.628906 327.285156 109.1875 L 327.285156 267.167969 C 327.285156 268.628906 326.492188 270.125 325.242188 270.871094 L 189.839844 349.871094 C 188.671875 350.617188 186.910156 350.617188 185.660156 349.871094 L 150.914062 329.050781 C 149.882812 328.382812 148.574219 328.148438 147.542969 328.738281 Z M 147.542969 328.738281 "/>
</g>
<path style=" stroke:none;fill-rule:nonzero;fill:rgb(54.899597%,75.289917%,24.308777%);fill-opacity:1;" d="M 229.578125 242.257812 C 193.738281 242.257812 185.878906 233.136719 183.257812 215.136719 C 182.960938 213.207031 181.355469 211.804688 179.375 211.804688 L 161.863281 211.804688 C 159.664062 211.804688 157.976562 213.578125 157.976562 215.726562 C 157.976562 238.769531 170.359375 266.265625 229.65625 266.265625 C 272.449219 266.1875 297.109375 249.085938 297.109375 219.289062 L 297.0625 219.304688 C 297.0625 189.742188 277.269531 181.882812 235.707031 176.328125 C 193.628906 170.695312 189.386719 167.800781 189.386719 157.875 C 189.386719 149.65625 192.992188 138.6875 224.136719 138.6875 C 251.925781 138.6875 262.1875 144.757812 266.429688 163.722656 C 266.789062 165.511719 268.410156 166.835938 270.253906 166.835938 L 287.84375 166.835938 C 288.9375 166.835938 289.964844 166.402344 290.699219 165.574219 C 291.429688 164.75 291.789062 163.644531 291.726562 162.542969 C 289.015625 129.863281 267.539062 114.679688 224.136719 114.679688 C 185.503906 114.679688 162.484375 131.140625 162.484375 158.761719 C 162.484375 188.699219 185.425781 197.007812 222.449219 200.695312 C 266.804688 205.082031 270.238281 211.664062 270.238281 220.488281 C 270.269531 235.753906 258.101562 242.257812 229.578125 242.257812 Z M 229.578125 242.257812 "/>
</g>
</svg>
