<?xml version="1.0" encoding="UTF-8"?>
<svg xmlns="http://www.w3.org/2000/svg" xmlns:xlink="http://www.w3.org/1999/xlink" width="375pt" height="374.999991pt" viewBox="0 0 375 374.999991" version="1.2">
<defs>
<clipPath id="clip1">
  <path d="M 5 4.921875 L 265 4.921875 L 265 284 L 5 284 Z M 5 4.921875 "/>
</clipPath>
<clipPath id="clip2">
  <path d="M 110 91 L 371 91 L 371 370.171875 L 110 370.171875 Z M 110 91 "/>
</clipPath>
</defs>
<g id="surface1">
<g clip-path="url(#clip1)" clip-rule="nonzero">
<path style=" stroke:none;fill-rule:nonzero;fill:rgb(0.779724%,46.669006%,74.119568%);fill-opacity:1;" d="M 192.277344 4.921875 C 177.332031 4.96875 166.972656 6.285156 154.453125 8.449219 C 117.476562 14.890625 110.742188 28.417969 110.742188 53.347656 L 110.742188 91.449219 L 197.226562 91.449219 L 197.226562 110.679688 L 65.652344 110.679688 C 40.324219 110.679688 18.152344 122.621094 11.128906 151.242188 C 3.191406 184.09375 2.835938 204.667969 11.128906 238.972656 C 17.421875 264.554688 31.289062 283.738281 56.628906 283.738281 L 91.53125 283.738281 L 91.53125 234.664062 C 91.53125 206.148438 117.34375 177.980469 146.917969 177.980469 L 216.453125 177.980469 C 240.699219 177.980469 264.5 160.078125 264.5 135.898438 L 264.5 53.347656 C 264.5 29.898438 247.597656 12.363281 223.96875 8.429688 C 224.554688 8.375 207.09375 4.863281 192.277344 4.921875 Z M 144.382812 43.378906 C 152.273438 43.378906 158.796875 49.886719 158.796875 57.820312 C 158.796875 65.828125 152.273438 72.222656 144.382812 72.222656 C 136.339844 72.222656 129.96875 65.839844 129.96875 57.820312 C 129.96875 49.917969 136.339844 43.378906 144.382812 43.378906 Z M 144.382812 43.378906 "/>
</g>
<g clip-path="url(#clip2)" clip-rule="nonzero">
<path style=" stroke:none;fill-rule:nonzero;fill:rgb(100%,75.689697%,2.749634%);fill-opacity:1;" d="M 182.964844 370.265625 C 197.90625 370.21875 208.265625 368.902344 220.785156 366.738281 C 257.765625 360.296875 264.5 346.769531 264.5 321.839844 L 264.5 283.738281 L 178.015625 283.738281 L 178.015625 264.507812 L 309.597656 264.507812 C 334.925781 264.507812 357.097656 252.566406 364.121094 223.945312 C 372.058594 191.09375 372.414062 170.519531 364.121094 136.214844 C 357.816406 110.632812 343.949219 91.449219 318.609375 91.449219 L 283.710938 91.449219 L 283.710938 140.523438 C 283.710938 169.039062 257.898438 197.207031 228.320312 197.207031 L 158.789062 197.207031 C 134.542969 197.207031 110.742188 215.109375 110.742188 239.289062 L 110.742188 321.839844 C 110.742188 345.289062 127.644531 362.824219 151.273438 366.757812 C 150.6875 366.8125 168.148438 370.324219 182.964844 370.265625 Z M 230.867188 331.808594 C 222.976562 331.808594 216.453125 325.300781 216.453125 317.367188 C 216.453125 309.359375 222.976562 302.964844 230.867188 302.964844 C 238.910156 302.964844 245.28125 309.347656 245.28125 317.367188 C 245.28125 325.269531 238.902344 331.808594 230.867188 331.808594 Z M 230.867188 331.808594 "/>
</g>
</g>
</svg>
