<?xml version="1.0" encoding="UTF-8"?>
<svg xmlns="http://www.w3.org/2000/svg" xmlns:xlink="http://www.w3.org/1999/xlink" width="375pt" height="374.999991pt" viewBox="0 0 375 374.999991" version="1.2">
<g id="surface1">
<path style=" stroke:none;fill-rule:nonzero;fill:rgb(32.548523%,75.689697%,87.059021%);fill-opacity:1;" d="M 221.046875 186.609375 C 221.046875 187.707031 220.992188 188.804688 220.886719 189.894531 C 220.777344 190.988281 220.617188 192.074219 220.402344 193.152344 C 220.1875 194.226562 219.921875 195.292969 219.601562 196.34375 C 219.285156 197.394531 218.914062 198.425781 218.492188 199.441406 C 218.074219 200.457031 217.605469 201.445312 217.085938 202.414062 C 216.566406 203.382812 216.003906 204.324219 215.394531 205.238281 C 214.78125 206.148438 214.128906 207.03125 213.433594 207.878906 C 212.734375 208.730469 212 209.542969 211.222656 210.316406 C 210.445312 211.09375 209.632812 211.832031 208.78125 212.527344 C 207.933594 213.222656 207.050781 213.878906 206.136719 214.488281 C 205.222656 215.097656 204.28125 215.660156 203.3125 216.179688 C 202.34375 216.695312 201.351562 217.164062 200.335938 217.585938 C 199.324219 218.007812 198.289062 218.375 197.238281 218.695312 C 196.1875 219.011719 195.121094 219.28125 194.042969 219.492188 C 192.96875 219.707031 191.882812 219.871094 190.789062 219.976562 C 189.695312 220.085938 188.597656 220.136719 187.5 220.136719 C 186.402344 220.136719 185.304688 220.085938 184.210938 219.976562 C 183.117188 219.871094 182.03125 219.707031 180.957031 219.492188 C 179.878906 219.28125 178.8125 219.011719 177.761719 218.695312 C 176.710938 218.375 175.675781 218.007812 174.664062 217.585938 C 173.648438 217.164062 172.65625 216.695312 171.6875 216.179688 C 170.71875 215.660156 169.777344 215.097656 168.863281 214.488281 C 167.949219 213.878906 167.066406 213.222656 166.21875 212.527344 C 165.367188 211.832031 164.554688 211.09375 163.777344 210.316406 C 163 209.542969 162.265625 208.730469 161.566406 207.878906 C 160.871094 207.03125 160.21875 206.148438 159.605469 205.238281 C 158.996094 204.324219 158.433594 203.382812 157.914062 202.414062 C 157.394531 201.445312 156.925781 200.457031 156.507812 199.441406 C 156.085938 198.425781 155.714844 197.394531 155.398438 196.34375 C 155.078125 195.292969 154.8125 194.226562 154.597656 193.152344 C 154.382812 192.074219 154.222656 190.988281 154.113281 189.894531 C 154.007812 188.804688 153.953125 187.707031 153.953125 186.609375 C 153.953125 185.511719 154.007812 184.417969 154.113281 183.324219 C 154.222656 182.230469 154.382812 181.144531 154.597656 180.070312 C 154.8125 178.992188 155.078125 177.929688 155.398438 176.878906 C 155.714844 175.824219 156.085938 174.792969 156.507812 173.777344 C 156.925781 172.765625 157.394531 171.773438 157.914062 170.804688 C 158.433594 169.835938 158.996094 168.894531 159.605469 167.980469 C 160.21875 167.070312 160.871094 166.1875 161.566406 165.339844 C 162.265625 164.492188 163 163.679688 163.777344 162.902344 C 164.554688 162.125 165.367188 161.386719 166.21875 160.691406 C 167.066406 159.996094 167.949219 159.34375 168.863281 158.730469 C 169.777344 158.121094 170.71875 157.558594 171.6875 157.039062 C 172.65625 156.523438 173.648438 156.054688 174.664062 155.632812 C 175.675781 155.214844 176.710938 154.84375 177.761719 154.523438 C 178.8125 154.207031 179.878906 153.941406 180.957031 153.726562 C 182.03125 153.511719 183.117188 153.351562 184.210938 153.242188 C 185.304688 153.136719 186.402344 153.082031 187.5 153.082031 C 188.597656 153.082031 189.695312 153.136719 190.789062 153.242188 C 191.882812 153.351562 192.96875 153.511719 194.042969 153.726562 C 195.121094 153.941406 196.1875 154.207031 197.238281 154.523438 C 198.289062 154.84375 199.324219 155.214844 200.335938 155.632812 C 201.351562 156.054688 202.34375 156.523438 203.3125 157.039062 C 204.28125 157.558594 205.222656 158.121094 206.136719 158.730469 C 207.050781 159.34375 207.933594 159.996094 208.78125 160.691406 C 209.632812 161.386719 210.445312 162.125 211.222656 162.902344 C 212 163.679688 212.734375 164.492188 213.433594 165.339844 C 214.128906 166.1875 214.78125 167.070312 215.394531 167.980469 C 216.003906 168.894531 216.566406 169.835938 217.085938 170.804688 C 217.605469 171.773438 218.074219 172.765625 218.492188 173.777344 C 218.914062 174.792969 219.285156 175.824219 219.601562 176.878906 C 219.921875 177.929688 220.1875 178.992188 220.402344 180.070312 C 220.617188 181.144531 220.777344 182.230469 220.886719 183.324219 C 220.992188 184.417969 221.046875 185.511719 221.046875 186.609375 Z M 221.046875 186.609375 "/>
<path style=" stroke:none;fill-rule:nonzero;fill:rgb(32.548523%,75.689697%,87.059021%);fill-opacity:1;" d="M 70.53125 245.984375 C 73.828125 247.078125 77.125 248.1875 80.5 249.136719 C 79.40625 253.527344 78.453125 257.851562 77.5625 262.320312 C 69.875 302.953125 75.875 335.152344 95.0625 346.210938 C 114.84375 357.625 148.09375 345.914062 180.46875 317.585938 C 183.03125 315.320312 185.59375 312.976562 188.15625 310.480469 C 191.375 313.632812 194.75 316.632812 198.109375 319.554688 C 229.453125 346.492188 260.4375 357.390625 279.5625 346.351562 C 299.34375 334.933594 305.78125 300.3125 297.4375 258.148438 C 296.78125 254.933594 296.046875 251.636719 295.234375 248.261719 C 297.578125 247.609375 299.84375 246.875 302.125 246.140625 C 344.390625 232.164062 375 209.535156 375 186.328125 C 375 164.152344 346.140625 142.632812 306.296875 128.9375 L 306.296875 128.921875 C 302.34375 127.609375 298.390625 126.363281 294.4375 125.191406 C 295.09375 122.488281 295.6875 119.769531 296.265625 117.070312 C 305.28125 73.4375 299.34375 38.394531 279.34375 26.820312 C 260.078125 15.765625 228.65625 27.257812 196.875 54.933594 C 193.71875 57.632812 190.65625 60.492188 187.71875 63.347656 C 185.734375 61.445312 183.6875 59.539062 181.640625 57.710938 C 148.3125 28.132812 114.921875 15.6875 94.921875 27.335938 C 75.734375 38.472656 70.015625 71.484375 78.078125 112.742188 C 78.890625 116.851562 79.765625 120.863281 80.78125 124.972656 C 76.09375 126.285156 71.484375 127.75 67.15625 129.296875 C 28.046875 142.835938 0 164.214844 0 186.328125 C 0 209.175781 29.875 232.070312 70.53125 245.984375 Z M 170.140625 305.621094 C 158.0625 316.679688 144.0625 325.457031 128.828125 331.46875 C 120.703125 335.339844 111.328125 335.714844 102.96875 332.421875 C 91.328125 325.691406 86.484375 299.84375 93.078125 265.066406 C 93.890625 260.976562 94.765625 256.867188 95.78125 252.839844 C 112.1875 256.351562 128.734375 258.773438 145.515625 260.007812 C 155.1875 273.703125 165.796875 286.804688 177.15625 299.09375 C 174.8125 301.359375 172.46875 303.5625 170.125 305.605469 Z M 263.15625 168.167969 C 259.71875 161.71875 256.203125 155.28125 252.53125 148.988281 C 248.9375 142.773438 245.203125 136.621094 241.328125 130.546875 C 253.125 132.015625 264.40625 133.980469 274.953125 136.402344 C 271.578125 147.242188 267.625 157.78125 263.15625 168.167969 Z M 263.296875 204.617188 C 267.984375 215.234375 272.09375 225.996094 275.671875 237.050781 C 264.3125 239.613281 252.828125 241.59375 241.25 242.90625 C 245.203125 236.753906 248.9375 230.460938 252.609375 224.167969 C 256.34375 217.71875 259.859375 211.207031 263.296875 204.617188 Z M 254.828125 186.40625 C 249.921875 196.511719 244.640625 206.457031 239.015625 216.265625 C 233.453125 225.996094 227.515625 235.441406 221.296875 244.8125 C 210.390625 245.625 199.03125 245.984375 187.53125 245.984375 C 176.03125 245.984375 164.90625 245.625 154.140625 244.953125 C 147.765625 235.660156 141.765625 226.136719 136.125 216.40625 C 130.484375 206.675781 125.28125 196.792969 120.375 186.6875 L 120.34375 186.6875 C 125.171875 176.585938 130.453125 166.699219 136.015625 156.96875 C 141.578125 147.242188 147.59375 137.792969 153.890625 128.5 C 164.875 127.6875 176.078125 127.25 187.515625 127.25 C 198.953125 127.25 210.21875 127.6875 221.140625 128.5 C 227.359375 137.730469 233.296875 147.164062 238.9375 156.828125 C 244.578125 166.496094 249.84375 176.382812 254.828125 186.40625 Z M 122.375 149.128906 C 118.78125 155.34375 115.265625 161.703125 111.96875 168.152344 C 107.359375 157.25 103.46875 146.570312 100.25 136.246094 C 110.796875 133.902344 122 132 133.640625 130.53125 C 129.78125 136.605469 125.96875 142.820312 122.375 149.128906 Z M 111.984375 205.195312 C 115.359375 211.644531 118.796875 218.015625 122.453125 224.308594 C 126.1875 230.679688 130 237.050781 134.03125 243.265625 C 122.609375 242.015625 111.25 240.191406 100.046875 237.769531 C 103.265625 227.226562 107.296875 216.328125 111.984375 205.195312 Z M 188.09375 287.820312 C 180.625 279.777344 173.15625 270.859375 165.90625 261.257812 C 172.9375 261.554688 180.1875 261.695312 187.515625 261.695312 C 195.0625 261.695312 202.453125 261.554688 209.78125 261.179688 C 203.046875 270.46875 195.796875 279.339844 188.09375 287.820312 Z M 283.828125 309.808594 C 283.15625 318.726562 278.765625 327.0625 271.734375 332.703125 C 260.09375 339.433594 235.265625 330.65625 208.453125 307.667969 C 205.375 305.03125 202.296875 302.171875 199.15625 299.25 C 210.359375 286.882812 220.6875 273.78125 230.0625 260.023438 C 246.828125 258.632812 263.53125 256.070312 280.015625 252.339844 C 280.75 255.339844 281.40625 258.335938 282 261.273438 C 285.59375 277.089844 286.171875 293.550781 283.828125 309.808594 Z M 290.1875 140.277344 C 294 141.367188 297.65625 142.539062 301.171875 143.710938 C 335.296875 155.421875 359.25 172.851562 359.25 186.171875 C 359.25 200.523438 333.6875 219.046875 297.140625 231.117188 C 295.09375 231.773438 293.046875 232.429688 290.921875 233.023438 C 285.796875 217.0625 279.5 201.476562 272.25 186.3125 C 279.28125 171.382812 285.21875 156 290.1875 140.277344 Z M 207.1875 66.785156 C 234.453125 43.078125 259.859375 33.785156 271.4375 40.441406 C 283.8125 47.546875 288.578125 76.234375 280.8125 113.929688 C 280.296875 116.414062 279.78125 118.835938 279.125 121.253906 C 262.859375 117.601562 246.390625 114.960938 229.828125 113.492188 C 220.3125 99.859375 209.90625 86.835938 198.625 74.609375 C 201.484375 71.90625 204.265625 69.347656 207.1875 66.785156 Z M 187.65625 85.820312 C 195.34375 94.160156 202.59375 102.9375 209.328125 112.011719 C 194.828125 111.355469 180.25 111.355469 165.75 112.011719 C 172.921875 102.578125 180.328125 93.800781 187.65625 85.820312 Z M 102.6875 40.953125 C 115 33.785156 142.3125 44.03125 171.09375 69.5 C 172.921875 71.109375 174.75 72.875 176.65625 74.625 C 165.296875 86.835938 154.828125 99.859375 145.234375 113.476562 C 128.6875 114.945312 112.28125 117.507812 96.015625 121.097656 C 95.0625 117.367188 94.265625 113.554688 93.453125 109.746094 C 86.5625 74.3125 91.109375 47.609375 102.6875 40.953125 Z M 72.296875 144.148438 C 76.46875 142.679688 80.71875 141.367188 84.96875 140.121094 C 89.953125 156 95.953125 171.601562 102.90625 186.671875 C 95.875 201.976562 89.796875 217.78125 84.75 233.878906 L 84.734375 233.894531 C 81.65625 233.023438 78.65625 232.070312 75.65625 231.039062 C 60.0625 226.136719 42.328125 218.375 29.515625 208.207031 C 22.125 203.085938 17.140625 195.183594 15.75 186.3125 C 15.75 172.914062 38.890625 155.78125 72.296875 144.148438 Z M 72.296875 144.148438 "/>
</g>
</svg>
