<?xml version="1.0" encoding="UTF-8"?>
<svg xmlns="http://www.w3.org/2000/svg" xmlns:xlink="http://www.w3.org/1999/xlink" width="375pt" height="374.999991pt" viewBox="0 0 375 374.999991" version="1.2">
<defs>
<clipPath id="clip1">
  <path d="M 39.84375 0 L 337.59375 0 L 337.59375 375 L 39.84375 375 Z M 39.84375 0 "/>
</clipPath>
<clipPath id="clip2">
  <path d="M 39.84375 271 L 337.59375 271 L 337.59375 375 L 39.84375 375 Z M 39.84375 271 "/>
</clipPath>
<clipPath id="clip3">
  <path d="M 259 0 L 337.59375 0 L 337.59375 78 L 259 78 Z M 259 0 "/>
</clipPath>
</defs>
<g id="surface1">
<g clip-path="url(#clip1)" clip-rule="nonzero">
<path style=" stroke:none;fill-rule:nonzero;fill:rgb(83.529663%,81.568909%,92.549133%);fill-opacity:1;" d="M 298.75 375 L 78.78125 375 C 57.34375 375 39.964844 357.632812 39.964844 336.207031 L 39.964844 38.792969 C 39.964844 17.367188 57.34375 0 78.78125 0 L 259.929688 0 L 337.566406 77.585938 L 337.566406 336.207031 C 337.566406 357.632812 320.1875 375 298.75 375 "/>
</g>
<g clip-path="url(#clip2)" clip-rule="nonzero">
<path style=" stroke:none;fill-rule:nonzero;fill:rgb(32.548523%,33.329773%,68.629456%);fill-opacity:1;" d="M 298.75 375 L 78.78125 375 C 57.34375 375 39.964844 357.632812 39.964844 336.207031 L 39.964844 271.550781 L 337.566406 271.550781 L 337.566406 336.207031 C 337.566406 357.632812 320.1875 375 298.75 375 "/>
</g>
<g clip-path="url(#clip3)" clip-rule="nonzero">
<path style=" stroke:none;fill-rule:nonzero;fill:rgb(51.759338%,51.759338%,79.219055%);fill-opacity:1;" d="M 337.566406 77.585938 L 298.75 77.585938 C 277.308594 77.585938 259.929688 60.21875 259.929688 38.792969 L 259.929688 0 L 337.566406 77.585938 "/>
</g>
<path style=" stroke:none;fill-rule:nonzero;fill:rgb(100%,100%,100%);fill-opacity:1;" d="M 130.539062 303.878906 L 143.476562 303.878906 C 147.050781 303.878906 149.949219 300.984375 149.949219 297.414062 C 149.949219 293.84375 147.050781 290.949219 143.476562 290.949219 L 130.539062 290.949219 C 119.835938 290.949219 111.128906 299.648438 111.128906 310.34375 C 111.128906 321.039062 119.835938 329.742188 130.539062 329.742188 C 134.105469 329.742188 137.007812 332.644531 137.007812 336.207031 C 137.007812 339.769531 134.105469 342.671875 130.539062 342.671875 L 117.601562 342.671875 C 114.027344 342.671875 111.128906 345.566406 111.128906 349.136719 C 111.128906 352.707031 114.027344 355.601562 117.601562 355.601562 L 130.539062 355.601562 C 141.242188 355.601562 149.949219 346.902344 149.949219 336.207031 C 149.949219 325.511719 141.242188 316.808594 130.539062 316.808594 C 126.972656 316.808594 124.070312 313.910156 124.070312 310.34375 C 124.070312 306.78125 126.972656 303.878906 130.539062 303.878906 "/>
<path style=" stroke:none;fill-rule:nonzero;fill:rgb(100%,100%,100%);fill-opacity:1;" d="M 259.929688 342.671875 L 240.523438 342.671875 L 240.523438 297.414062 C 240.523438 293.84375 237.625 290.949219 234.054688 290.949219 C 230.480469 290.949219 227.582031 293.84375 227.582031 297.414062 L 227.582031 349.136719 C 227.582031 352.707031 230.480469 355.601562 234.054688 355.601562 L 259.929688 355.601562 C 263.503906 355.601562 266.402344 352.707031 266.402344 349.136719 C 266.402344 345.566406 263.503906 342.671875 259.929688 342.671875 "/>
<path style=" stroke:none;fill-rule:nonzero;fill:rgb(100%,100%,100%);fill-opacity:1;" d="M 188.765625 342.671875 C 181.753906 342.671875 175.828125 333.789062 175.828125 323.277344 C 175.828125 312.761719 181.753906 303.878906 188.765625 303.878906 C 195.777344 303.878906 201.703125 312.761719 201.703125 323.277344 C 201.703125 326.417969 201.175781 329.410156 200.242188 332.066406 L 193.339844 325.171875 C 190.8125 322.644531 186.71875 322.644531 184.191406 325.171875 C 181.664062 327.695312 181.664062 331.785156 184.191406 334.3125 L 191.9375 342.058594 C 190.921875 342.457031 189.855469 342.671875 188.765625 342.671875 Z M 209.964844 341.78125 C 212.910156 336.535156 214.644531 330.15625 214.644531 323.277344 C 214.644531 305.453125 203.035156 290.949219 188.765625 290.949219 C 174.496094 290.949219 162.886719 305.453125 162.886719 323.277344 C 162.886719 341.101562 174.496094 355.601562 188.765625 355.601562 C 193.34375 355.601562 197.640625 354.105469 201.378906 351.488281 L 203.601562 353.710938 C 204.863281 354.972656 206.519531 355.601562 208.175781 355.601562 C 209.828125 355.601562 211.484375 354.972656 212.75 353.710938 C 215.277344 351.183594 215.277344 347.09375 212.75 344.566406 L 209.964844 341.78125 "/>
<path style=" stroke:none;fill-rule:nonzero;fill:rgb(51.759338%,51.759338%,79.219055%);fill-opacity:1;" d="M 130.539062 90.515625 L 130.539062 206.898438 C 130.539062 214.039062 156.605469 219.828125 188.765625 219.828125 C 220.925781 219.828125 246.992188 214.039062 246.992188 206.898438 L 246.992188 90.515625 L 130.539062 90.515625 "/>
<path style=" stroke:none;fill-rule:nonzero;fill:rgb(100%,100%,100%);fill-opacity:1;" d="M 246.992188 90.515625 C 246.992188 97.660156 220.925781 103.449219 188.765625 103.449219 C 156.605469 103.449219 130.539062 97.660156 130.539062 90.515625 C 130.539062 83.375 156.605469 77.585938 188.765625 77.585938 C 220.925781 77.585938 246.992188 83.375 246.992188 90.515625 "/>
<path style=" stroke:none;fill-rule:nonzero;fill:rgb(32.548523%,33.329773%,68.629456%);fill-opacity:1;" d="M 188.765625 174.570312 C 155.300781 174.570312 134.992188 169.550781 130.539062 166.578125 L 130.539062 180.347656 C 140.496094 184.257812 157.945312 187.5 188.765625 187.5 C 219.582031 187.5 237.035156 184.257812 246.992188 180.347656 L 246.992188 166.578125 C 242.539062 169.550781 222.230469 174.570312 188.765625 174.570312 "/>
<path style=" stroke:none;fill-rule:nonzero;fill:rgb(32.548523%,33.329773%,68.629456%);fill-opacity:1;" d="M 188.765625 135.777344 C 155.300781 135.777344 134.992188 130.757812 130.539062 127.785156 L 130.539062 141.554688 C 140.496094 145.464844 157.945312 148.707031 188.765625 148.707031 C 219.582031 148.707031 237.035156 145.464844 246.992188 141.554688 L 246.992188 127.785156 C 242.539062 130.757812 222.230469 135.777344 188.765625 135.777344 "/>
</g>
</svg>
